<svg width="200" height="200" viewBox="0 0 200 200" xmlns="http://www.w3.org/2000/svg">
  <!-- Background Circle -->
  <circle cx="100" cy="100" r="95" fill="#151515"/>
  
  <!-- Document Shape -->
  <rect x="60" y="50" width="80" height="100" rx="4" fill="#ffffff"/>
  
  <!-- Folded Corner -->
  <path d="M 140 50 L 140 65 L 125 65 Z" fill="#e0e0e0"/>
  <path d="M 140 50 L 140 65 L 125 65 Z" fill="#151515" opacity="0.1"/>
  
  <!-- Code Lines -->
  <rect x="70" y="75" width="50" height="4" rx="2" fill="#ff5252"/>
  <rect x="70" y="85" width="60" height="4" rx="2" fill="#10b981"/>
  <rect x="70" y="95" width="45" height="4" rx="2" fill="#3b82f6"/>
  <rect x="70" y="105" width="55" height="4" rx="2" fill="#ff5252"/>
  <rect x="70" y="115" width="40" height="4" rx="2" fill="#10b981"/>
  <rect x="70" y="125" width="50" height="4" rx="2" fill="#3b82f6"/>
  
  <!-- Tech Symbol - Brackets -->
  <path d="M 80 130 L 70 140 L 80 150" stroke="#ff5252" stroke-width="3" fill="none" stroke-linecap="round" stroke-linejoin="round"/>
  <path d="M 120 130 L 130 140 L 120 150" stroke="#ff5252" stroke-width="3" fill="none" stroke-linecap="round" stroke-linejoin="round"/>
  
  <!-- Forward Slash -->
  <line x1="105" y1="130" x2="95" y2="150" stroke="#10b981" stroke-width="3" stroke-linecap="round"/>
</svg>